<svg xmlns="http://www.w3.org/2000/svg" xml:space="preserve" width="2048" height="2048" style="shape-rendering:geometricPrecision;text-rendering:geometricPrecision;image-rendering:optimizeQuality;fill-rule:evenodd;clip-rule:evenodd"><defs><style>.fil2{fill:none}.fil4{fill:#757575}.fil5{fill:#a5a5a5}.fil6{fill:#bdbdbd}</style></defs><g id="Layer_x0020_1"><path d="M302.072 402.456c-25.32 0-46.072 21.017-46.072 47.09v1294.91c0 26.072 20.753 47.561 46.072 47.561h1443.85c25.32 0 46.082-21.489 46.082-47.562V449.545c0-26.073-20.761-47.089-46.082-47.089H302.075z" style="fill:#e8eaf6"/><path d="M302.072 402.456c-25.32 0-46.072 21.017-46.072 47.09v382.452h1536V449.545c0-26.073-20.762-47.089-46.082-47.089H302.07z" style="fill:#e64a19"/><path class="fil2" d="M0 0h2048v2048H0z"/><path class="fil2" d="M255.999 255.999h1536v1536h-1536z"/><path class="fil2" d="M255.999 255.999h1536v1536h-1536z"/><path d="M1143.03 1197.52c11.271-3.137 24.006-.377 32.919 8.528 13.155 13.041 13.155 34.417 0 47.633l-140.446 140.471c-6.572 6.565-15.205 9.904-23.935 9.904-8.615 0-17.134-3.339-23.812-9.904l-86.545-86.554c-31.315-31.375 16.31-79.087 47.624-47.73l62.733 62.743 131.462-125.091z" style="fill:#424242"/><path class="fil4" d="M548.449 1133.84H329.233V914.159h219.216zM548.449 1426.3H329.233v-219.69h219.216zM548.449 1718.78h-187.78c-17.545 0-31.436-12.156-31.436-27.52v-191.724h219.216v219.243zM621.682 1499.53h219.243v219.25H621.682zM621.682 1206.61h219.243v219.69H621.682zM621.682 914.159h219.243v219.681H621.682zM914.142 1499.53h219.708v219.25H914.142zM914.142 914.159h219.708v219.681H914.142zM1206.62 1499.53h219.69v219.25h-219.69zM1206.62 1206.61h219.69v219.69h-219.69zM1206.62 914.159h219.69v219.681h-219.69zM1499.54 1499.53h219.217v191.724c0 15.364-13.891 27.52-31.437 27.52h-187.78V1499.53zM1499.54 1206.61h219.22v219.69h-219.22zM1499.54 914.159h219.22v219.681h-219.22z"/><g id="_344173928"><path id="_344173760" class="fil5" d="M1354.23 329.6h-14.207c-23.706 0-42.996 19.01-42.996 42.995v142.543c0 23.705 19.29 42.913 42.996 42.913h14.207V329.6z"/><path id="_344173952" class="fil6" d="M1366.16 558.05c23.699 0 42.989-18.927 42.989-42.913V372.594c0-23.705-19.29-42.995-42.989-42.995h-14.215v228.45h14.215z"/></g><g id="_344170064"><path id="_344172464" class="fil5" d="M697.204 329.6h-14.207C659.29 329.6 640 348.61 640 372.595v142.543c0 23.705 19.29 42.913 42.996 42.913h14.207V329.6z"/><path id="_344173736" class="fil6" d="M709.134 558.05c23.699 0 42.989-18.927 42.989-42.913V372.594c0-23.705-19.29-42.995-42.989-42.995h-14.215v228.45h14.215z"/></g></g></svg>